<svg width="61" height="22" viewBox="0 0 61 22" fill="none" xmlns="http://www.w3.org/2000/svg">
<path d="M47.6364 5.61538C47.6364 5.61538 47.6364 1 52 1C56.3636 1 56.3636 5.61538 56.3636 5.61538M44 5.61538V21H60V5.61538H44Z" stroke="black" stroke-linecap="round" stroke-linejoin="round"/>
<path d="M11 12.5926C13.5 12.5926 16 10.6296 16 6.92593C16 3.22222 14.3333 1 11 1C7.66667 1 6 4 6 6.92593C6 10.6296 8.5 12.5926 11 12.5926ZM11 12.5926C16 12.5926 21 16.5 21 21H1C1 17 6 12.5926 11 12.5926Z" stroke="black" stroke-linecap="round" stroke-linejoin="round"/>
</svg>
